<svg viewBox="0 0 1280 760" xmlns="http://www.w3.org/2000/svg" role="img" font-family="system-ui, -apple-system, sans-serif">
<title>AAuth Mission Platform — operator console</title>
<desc>Mockup of the operator console at the Missions tab. Shows the brand header with operator login chip, four-stat dashboard cards above the missions table, and one mission row selected showing its hop chain and token ledger. Visual style matches the SPA stylesheet shipped in platform/operator-console/index.html.</desc>

<rect width="1280" height="760" fill="#0f172a"/>

<rect width="1280" height="56" fill="#0b1220"/>
<rect y="55" width="1280" height="1" fill="#334155"/>
<text x="24" y="34" font-size="14" font-weight="600" fill="#e2e8f0">AAuth Mission Platform <tspan fill="#38bdf8">·</tspan> operator</text>

<rect x="200" y="14" width="92" height="28" rx="6" fill="#1e293b"/>
<text x="246" y="32" text-anchor="middle" font-size="13" fill="#e2e8f0">Dashboard</text>
<rect x="296" y="14" width="64" height="28" rx="6" fill="transparent"/>
<text x="328" y="32" text-anchor="middle" font-size="13" fill="#94a3b8">Agents</text>
<rect x="364" y="14" width="80" height="28" rx="6" fill="#283449"/>
<text x="404" y="32" text-anchor="middle" font-size="13" fill="#e2e8f0">Missions</text>
<text x="476" y="32" text-anchor="middle" font-size="13" fill="#94a3b8">Tokens</text>
<text x="588" y="32" text-anchor="middle" font-size="13" fill="#94a3b8">Gateway &amp; IDP</text>
<text x="696" y="32" text-anchor="middle" font-size="13" fill="#94a3b8">Audit</text>

<text x="1144" y="32" font-size="13" fill="#94a3b8">signed in as <tspan fill="#e2e8f0" font-weight="500">operator</tspan></text>
<rect x="1228" y="14" width="38" height="28" rx="4" fill="transparent" stroke="#334155"/>
<text x="1247" y="32" text-anchor="middle" font-size="11.5" fill="#94a3b8">⎋</text>

<g transform="translate(24,80)">
  <rect width="296" height="80" rx="10" fill="#1e293b" stroke="#334155"/>
  <text x="16" y="24" font-size="11" fill="#94a3b8" letter-spacing="0.6">ACTIVE AGENTS</text>
  <text x="16" y="56" font-size="28" font-weight="500" fill="#22c55e">3</text>

  <g transform="translate(312,0)">
    <rect width="296" height="80" rx="10" fill="#1e293b" stroke="#334155"/>
    <text x="16" y="24" font-size="11" fill="#94a3b8" letter-spacing="0.6">PENDING AGENTS</text>
    <text x="16" y="56" font-size="28" font-weight="500" fill="#f59e0b">0</text>
  </g>

  <g transform="translate(624,0)">
    <rect width="296" height="80" rx="10" fill="#1e293b" stroke="#334155"/>
    <text x="16" y="24" font-size="11" fill="#94a3b8" letter-spacing="0.6">ACTIVE MISSIONS</text>
    <text x="16" y="56" font-size="28" font-weight="500" fill="#e2e8f0">1</text>
  </g>

  <g transform="translate(936,0)">
    <rect width="296" height="80" rx="10" fill="#1e293b" stroke="#334155"/>
    <text x="16" y="24" font-size="11" fill="#94a3b8" letter-spacing="0.6">TOKENS ISSUED</text>
    <text x="16" y="56" font-size="28" font-weight="500" fill="#e2e8f0">12</text>
  </g>
</g>

<g transform="translate(24,184)">
  <rect width="1232" height="288" rx="10" fill="#1e293b" stroke="#334155"/>
  <text x="20" y="28" font-size="16" font-weight="500" fill="#e2e8f0">Missions</text>

  <g transform="translate(1064,12)">
    <rect width="80" height="24" rx="4" fill="#283449" stroke="#334155"/>
    <text x="40" y="16" text-anchor="middle" font-size="11" fill="#e2e8f0">All states ▾</text>
    <rect x="84" y="0" width="64" height="24" rx="4" fill="#283449" stroke="#334155"/>
    <text x="116" y="16" text-anchor="middle" font-size="11" fill="#e2e8f0">Refresh</text>
  </g>

  <line x1="0" y1="52" x2="1232" y2="52" stroke="#334155"/>
  <text x="20" y="68" font-size="11" letter-spacing="0.6" fill="#94a3b8">MISSION ID</text>
  <text x="200" y="68" font-size="11" letter-spacing="0.6" fill="#94a3b8">USER</text>
  <text x="328" y="68" font-size="11" letter-spacing="0.6" fill="#94a3b8">ORIGINATOR</text>
  <text x="480" y="68" font-size="11" letter-spacing="0.6" fill="#94a3b8">SCOPE</text>
  <text x="720" y="68" font-size="11" letter-spacing="0.6" fill="#94a3b8">STATE</text>
  <text x="840" y="68" font-size="11" letter-spacing="0.6" fill="#94a3b8">CREATED</text>

  <rect x="0" y="78" width="1232" height="44" fill="#283449" opacity="0.6"/>
  <line x1="0" y1="78" x2="1232" y2="78" stroke="#334155"/>
  <line x1="0" y1="122" x2="1232" y2="122" stroke="#334155"/>
  <rect x="20" y="92" width="156" height="20" rx="4" fill="#283449"/>
  <text x="98" y="106" text-anchor="middle" font-family="ui-monospace, monospace" font-size="11.5" fill="#94a3b8">f9b3569e-f7ed…</text>
  <text x="200" y="106" font-size="13" fill="#e2e8f0">demo-user</text>
  <text x="328" y="106" font-size="13" fill="#e2e8f0">backend</text>
  <text x="480" y="106" font-size="13" fill="#e2e8f0">supply-chain-optimize</text>
  <rect x="720" y="94" width="56" height="16" rx="8" fill="rgba(56,189,248,.15)"/>
  <text x="748" y="106" text-anchor="middle" font-size="11" font-weight="500" fill="#38bdf8">completed</text>
  <text x="840" y="106" font-family="ui-monospace, monospace" font-size="11.5" fill="#94a3b8">5/22/2026, 5:36 AM</text>
  <rect x="1140" y="94" width="56" height="20" rx="4" fill="#283449" stroke="#334155"/>
  <text x="1168" y="108" text-anchor="middle" font-size="11" fill="#e2e8f0">View</text>

  <rect x="20" y="138" width="156" height="20" rx="4" fill="#283449"/>
  <text x="98" y="152" text-anchor="middle" font-family="ui-monospace, monospace" font-size="11.5" fill="#94a3b8">2db99022-44f2…</text>
  <text x="200" y="152" font-size="13" fill="#e2e8f0">demo-user</text>
  <text x="328" y="152" font-size="13" fill="#e2e8f0">backend</text>
  <text x="480" y="152" font-size="13" fill="#e2e8f0">supply-chain-optimize-slow</text>
  <rect x="720" y="140" width="56" height="16" rx="8" fill="rgba(239,68,68,.15)"/>
  <text x="748" y="152" text-anchor="middle" font-size="11" font-weight="500" fill="#ef4444">revoked</text>
  <text x="840" y="152" font-family="ui-monospace, monospace" font-size="11.5" fill="#94a3b8">5/22/2026, 5:36 AM</text>
  <rect x="1140" y="140" width="56" height="20" rx="4" fill="#283449" stroke="#334155"/>
  <text x="1168" y="154" text-anchor="middle" font-size="11" fill="#e2e8f0">View</text>

  <line x1="0" y1="168" x2="1232" y2="168" stroke="#334155"/>
  <rect x="20" y="184" width="156" height="20" rx="4" fill="#283449"/>
  <text x="98" y="198" text-anchor="middle" font-family="ui-monospace, monospace" font-size="11.5" fill="#94a3b8">a8c1f902-15dd…</text>
  <text x="200" y="198" font-size="13" fill="#e2e8f0">demo-user</text>
  <text x="328" y="198" font-size="13" fill="#e2e8f0">backend</text>
  <text x="480" y="198" font-size="13" fill="#e2e8f0">supply-chain-optimize</text>
  <rect x="720" y="186" width="46" height="16" rx="8" fill="rgba(34,197,94,.15)"/>
  <text x="743" y="198" text-anchor="middle" font-size="11" font-weight="500" fill="#22c55e">active</text>
  <text x="840" y="198" font-family="ui-monospace, monospace" font-size="11.5" fill="#94a3b8">5/22/2026, 5:42 AM</text>
  <rect x="1140" y="186" width="56" height="20" rx="4" fill="#0ea5e9"/>
  <text x="1168" y="200" text-anchor="middle" font-size="11" fill="#001017">View</text>
</g>

<g transform="translate(24,500)">
  <rect width="1232" height="236" rx="10" fill="#1e293b" stroke="#334155"/>
  <text x="20" y="28" font-size="14" font-weight="500" fill="#e2e8f0">Selected mission · a8c1f902-15dd-43a7-b6c2-99f8e1233c91</text>
  <line x1="0" y1="48" x2="1232" y2="48" stroke="#334155"/>

  <text x="20" y="74" font-size="11" letter-spacing="0.6" fill="#94a3b8">HOPS</text>
  <g transform="translate(20,86)">
    <rect width="600" height="50" fill="rgba(56,189,248,.05)"/>
    <line x1="0" y1="0" x2="0" y2="50" stroke="#38bdf8" stroke-width="2"/>
    <text x="14" y="20" font-family="ui-monospace, monospace" font-size="12" fill="#e2e8f0">hop 1: <tspan fill="#38bdf8">backend</tspan> → <tspan fill="#38bdf8">supply-chain</tspan></text>
    <text x="14" y="38" font-size="11" fill="#94a3b8">act = [backend] · jti=tx-c6625344… · 5:36 AM</text>
  </g>
  <g transform="translate(20,142)">
    <rect width="600" height="50" fill="rgba(56,189,248,.05)"/>
    <line x1="0" y1="0" x2="0" y2="50" stroke="#38bdf8" stroke-width="2"/>
    <text x="14" y="20" font-family="ui-monospace, monospace" font-size="12" fill="#e2e8f0">hop 2: <tspan fill="#38bdf8">supply-chain</tspan> → <tspan fill="#38bdf8">market-analysis</tspan></text>
    <text x="14" y="38" font-size="11" fill="#94a3b8">act = [backend → supply-chain] · jti=tx-93f4a4… · 5:36 AM</text>
  </g>

  <g transform="translate(656,68)">
    <text x="0" y="6" font-size="11" letter-spacing="0.6" fill="#94a3b8">TOKENS ISSUED</text>
    <g transform="translate(0,18)">
      <text x="0" y="16" font-family="ui-monospace, monospace" font-size="11.5" fill="#94a3b8">tx-c6625344</text>
      <text x="120" y="16" font-size="12" fill="#e2e8f0">aud: supply-chain</text>
      <rect x="280" y="3" width="46" height="16" rx="8" fill="rgba(34,197,94,.15)"/>
      <text x="303" y="15" text-anchor="middle" font-size="11" font-weight="500" fill="#22c55e">active</text>
    </g>
    <g transform="translate(0,46)">
      <text x="0" y="16" font-family="ui-monospace, monospace" font-size="11.5" fill="#94a3b8">tx-93f4a486</text>
      <text x="120" y="16" font-size="12" fill="#e2e8f0">aud: market-analysis</text>
      <rect x="280" y="3" width="46" height="16" rx="8" fill="rgba(34,197,94,.15)"/>
      <text x="303" y="15" text-anchor="middle" font-size="11" font-weight="500" fill="#22c55e">active</text>
    </g>
    <g transform="translate(0,80)">
      <rect width="220" height="32" rx="6" fill="transparent" stroke="rgba(239,68,68,.4)"/>
      <text x="110" y="20" text-anchor="middle" font-size="12" fill="#ef4444">Revoke mission</text>
    </g>
  </g>
</g>
</svg>
